<mxfile host="app.diagrams.net" modified="2022-03-02T07:23:06.733Z" agent="5.0 (Macintosh)" etag="4uV6v3ckZRX63ViZCFUs" version="16.6.4" type="github" pages="2">
  <diagram name="Landing Page" id="03018318-947c-dd8e-b7a3-06fadd420f32">
    <mxGraphModel dx="1127" dy="731" grid="1" gridSize="10" guides="1" tooltips="1" connect="1" arrows="1" fold="1" page="1" pageScale="1" pageWidth="1100" pageHeight="850" background="none" math="0" shadow="0">
      <root>
        <mxCell id="0" />
        <mxCell id="1" parent="0" />
        <mxCell id="677b7b8949515195-1" value="" style="whiteSpace=wrap;html=1;rounded=0;shadow=0;labelBackgroundColor=none;strokeColor=#000000;strokeWidth=1;fillColor=none;fontFamily=Verdana;fontSize=12;fontColor=#000000;align=center;comic=1;" parent="1" vertex="1">
          <mxGeometry x="20" y="20" width="1060" height="810" as="geometry" />
        </mxCell>
        <mxCell id="677b7b8949515195-2" value="LOGO" style="whiteSpace=wrap;html=1;rounded=0;shadow=0;labelBackgroundColor=none;strokeWidth=1;fontFamily=Verdana;fontSize=28;align=center;comic=1;" parent="1" vertex="1">
          <mxGeometry x="40" y="60" width="190" height="50" as="geometry" />
        </mxCell>
        <mxCell id="677b7b8949515195-3" value="Search" style="strokeWidth=1;shadow=0;dashed=0;align=center;html=1;shape=mxgraph.mockup.forms.searchBox;strokeColor=#999999;mainText=;strokeColor2=#008cff;fontColor=#666666;fontSize=17;align=left;spacingLeft=3;rounded=0;labelBackgroundColor=none;comic=1;" parent="1" vertex="1">
          <mxGeometry x="840" y="95" width="220" height="30" as="geometry" />
        </mxCell>
        <mxCell id="677b7b8949515195-4" value="Topic 1" style="text;html=1;points=[];align=left;verticalAlign=top;spacingTop=-4;fontSize=14;fontFamily=Verdana" parent="1" vertex="1">
          <mxGeometry x="780" y="40" width="60" height="20" as="geometry" />
        </mxCell>
        <mxCell id="677b7b8949515195-5" value="Topic 2" style="text;html=1;points=[];align=left;verticalAlign=top;spacingTop=-4;fontSize=14;fontFamily=Verdana" parent="1" vertex="1">
          <mxGeometry x="860" y="40" width="60" height="20" as="geometry" />
        </mxCell>
        <mxCell id="677b7b8949515195-6" value="Topic 3" style="text;html=1;points=[];align=left;verticalAlign=top;spacingTop=-4;fontSize=14;fontFamily=Verdana" parent="1" vertex="1">
          <mxGeometry x="930" y="40" width="60" height="20" as="geometry" />
        </mxCell>
        <mxCell id="677b7b8949515195-7" value="Topic 4" style="text;html=1;points=[];align=left;verticalAlign=top;spacingTop=-4;fontSize=14;fontFamily=Verdana" parent="1" vertex="1">
          <mxGeometry x="1000" y="40" width="60" height="20" as="geometry" />
        </mxCell>
        <mxCell id="677b7b8949515195-8" value="" style="whiteSpace=wrap;html=1;rounded=0;shadow=0;labelBackgroundColor=none;strokeWidth=1;fillColor=none;fontFamily=Verdana;fontSize=12;align=center;comic=1;" parent="1" vertex="1">
          <mxGeometry x="30" y="230" width="200" height="590" as="geometry" />
        </mxCell>
        <mxCell id="677b7b8949515195-9" value="" style="line;strokeWidth=1;html=1;rounded=0;shadow=0;labelBackgroundColor=none;fillColor=none;fontFamily=Verdana;fontSize=14;fontColor=#000000;align=center;comic=1;" parent="1" vertex="1">
          <mxGeometry x="20" y="140" width="1060" height="10" as="geometry" />
        </mxCell>
        <mxCell id="677b7b8949515195-10" value="" style="whiteSpace=wrap;html=1;rounded=0;shadow=0;labelBackgroundColor=none;strokeWidth=1;fillColor=none;fontFamily=Verdana;fontSize=12;align=center;comic=1;" parent="1" vertex="1">
          <mxGeometry x="30" y="160" width="1040" height="50" as="geometry" />
        </mxCell>
        <mxCell id="677b7b8949515195-11" value="Section 1" style="text;html=1;points=[];align=left;verticalAlign=top;spacingTop=-4;fontSize=14;fontFamily=Verdana" parent="1" vertex="1">
          <mxGeometry x="330" y="175" width="60" height="20" as="geometry" />
        </mxCell>
        <mxCell id="677b7b8949515195-12" value="Section 2" style="text;html=1;points=[];align=left;verticalAlign=top;spacingTop=-4;fontSize=14;fontFamily=Verdana" parent="1" vertex="1">
          <mxGeometry x="477" y="175" width="60" height="20" as="geometry" />
        </mxCell>
        <mxCell id="677b7b8949515195-13" value="Section 3" style="text;html=1;points=[];align=left;verticalAlign=top;spacingTop=-4;fontSize=14;fontFamily=Verdana" parent="1" vertex="1">
          <mxGeometry x="623" y="175" width="60" height="20" as="geometry" />
        </mxCell>
        <mxCell id="677b7b8949515195-14" value="Section 4" style="text;html=1;points=[];align=left;verticalAlign=top;spacingTop=-4;fontSize=14;fontFamily=Verdana" parent="1" vertex="1">
          <mxGeometry x="770" y="175" width="60" height="20" as="geometry" />
        </mxCell>
        <mxCell id="677b7b8949515195-15" value="&lt;div style=&quot;text-align: justify&quot;&gt;&lt;span&gt;Lorem ipsum dolor sit amet, consectetur adipisicing elit, sed do eiusmod tempor incididunt ut labore et dolore magna aliqua. Ut enim ad minim veniam, quis nostrud exercitation ullamco laboris nisi ut aliquip ex ea commodo consequat. Duis aute irure dolor in reprehenderit in voluptate velit esse cillum dolore eu fugiat nulla pariatur. Excepteur sint occaecat cupidatat non proident, sunt in culpa qui officia deserunt mollit anim id est laborum.&lt;/span&gt;&lt;/div&gt;&lt;div style=&quot;text-align: justify&quot;&gt;&lt;span&gt;Sed ut perspiciatis unde omnis iste natus error sit voluptatem accusantium doloremque laudantium, totam rem aperiam, eaque ipsa quae ab illo inventore veritatis et quasi architecto beatae vitae dicta sunt explicabo. Nemo enim ipsam voluptatem quia voluptas sit aspernatur aut odit aut fugit, sed quia consequuntur magni dolores eos qui ratione voluptatem sequi nesciunt.&amp;nbsp;&lt;/span&gt;&lt;/div&gt;" style="whiteSpace=wrap;html=1;rounded=0;shadow=0;labelBackgroundColor=none;strokeWidth=1;fillColor=none;fontFamily=Verdana;fontSize=12;align=center;verticalAlign=top;spacing=10;comic=1;" parent="1" vertex="1">
          <mxGeometry x="250" y="640" width="580" height="180" as="geometry" />
        </mxCell>
        <mxCell id="677b7b8949515195-16" value="" style="verticalLabelPosition=bottom;shadow=0;dashed=0;align=center;html=1;verticalAlign=top;strokeWidth=1;shape=mxgraph.mockup.graphics.simpleIcon;strokeColor=#999999;rounded=0;labelBackgroundColor=none;fontFamily=Verdana;fontSize=14;fontColor=#000000;comic=1;" parent="1" vertex="1">
          <mxGeometry x="250" y="230" width="580" height="400" as="geometry" />
        </mxCell>
        <mxCell id="677b7b8949515195-25" value="" style="whiteSpace=wrap;html=1;rounded=0;shadow=0;labelBackgroundColor=none;strokeWidth=1;fillColor=none;fontFamily=Verdana;fontSize=12;align=center;comic=1;" parent="1" vertex="1">
          <mxGeometry x="840" y="230" width="230" height="400" as="geometry" />
        </mxCell>
        <mxCell id="677b7b8949515195-26" value="" style="whiteSpace=wrap;html=1;rounded=0;shadow=0;labelBackgroundColor=none;strokeWidth=1;fillColor=none;fontFamily=Verdana;fontSize=12;align=center;comic=1;" parent="1" vertex="1">
          <mxGeometry x="840" y="640" width="230" height="180" as="geometry" />
        </mxCell>
        <mxCell id="677b7b8949515195-27" value="Section 1" style="text;html=1;points=[];align=left;verticalAlign=top;spacingTop=-4;fontSize=14;fontFamily=Verdana" parent="1" vertex="1">
          <mxGeometry x="40" y="250" width="170" height="20" as="geometry" />
        </mxCell>
        <mxCell id="677b7b8949515195-28" value="Section 2" style="text;html=1;points=[];align=left;verticalAlign=top;spacingTop=-4;fontSize=14;fontFamily=Verdana" parent="1" vertex="1">
          <mxGeometry x="40" y="286" width="170" height="20" as="geometry" />
        </mxCell>
        <mxCell id="677b7b8949515195-29" value="Section 3" style="text;html=1;points=[];align=left;verticalAlign=top;spacingTop=-4;fontSize=14;fontFamily=Verdana" parent="1" vertex="1">
          <mxGeometry x="40" y="321" width="170" height="20" as="geometry" />
        </mxCell>
        <mxCell id="677b7b8949515195-30" value="Section 4" style="text;html=1;points=[];align=left;verticalAlign=top;spacingTop=-4;fontSize=14;fontFamily=Verdana" parent="1" vertex="1">
          <mxGeometry x="40" y="357" width="170" height="20" as="geometry" />
        </mxCell>
        <mxCell id="677b7b8949515195-31" value="Section 7" style="text;html=1;points=[];align=left;verticalAlign=top;spacingTop=-4;fontSize=14;fontFamily=Verdana" parent="1" vertex="1">
          <mxGeometry x="40" y="464" width="170" height="20" as="geometry" />
        </mxCell>
        <mxCell id="677b7b8949515195-32" value="Section 8" style="text;html=1;points=[];align=left;verticalAlign=top;spacingTop=-4;fontSize=14;fontFamily=Verdana" parent="1" vertex="1">
          <mxGeometry x="40" y="500" width="170" height="20" as="geometry" />
        </mxCell>
        <mxCell id="677b7b8949515195-33" value="Section 9" style="text;html=1;points=[];align=left;verticalAlign=top;spacingTop=-4;fontSize=14;fontFamily=Verdana" parent="1" vertex="1">
          <mxGeometry x="40" y="536" width="170" height="20" as="geometry" />
        </mxCell>
        <mxCell id="677b7b8949515195-34" value="Section 10" style="text;html=1;points=[];align=left;verticalAlign=top;spacingTop=-4;fontSize=14;fontFamily=Verdana" parent="1" vertex="1">
          <mxGeometry x="40" y="571" width="170" height="20" as="geometry" />
        </mxCell>
        <mxCell id="677b7b8949515195-35" value="Section 11" style="text;html=1;points=[];align=left;verticalAlign=top;spacingTop=-4;fontSize=14;fontFamily=Verdana" parent="1" vertex="1">
          <mxGeometry x="40" y="607" width="170" height="20" as="geometry" />
        </mxCell>
        <mxCell id="677b7b8949515195-36" value="Section 12" style="text;html=1;points=[];align=left;verticalAlign=top;spacingTop=-4;fontSize=14;fontFamily=Verdana" parent="1" vertex="1">
          <mxGeometry x="40" y="643" width="170" height="20" as="geometry" />
        </mxCell>
        <mxCell id="677b7b8949515195-37" value="Section 13" style="text;html=1;points=[];align=left;verticalAlign=top;spacingTop=-4;fontSize=14;fontFamily=Verdana" parent="1" vertex="1">
          <mxGeometry x="40" y="679" width="170" height="20" as="geometry" />
        </mxCell>
        <mxCell id="677b7b8949515195-38" value="Section 14" style="text;html=1;points=[];align=left;verticalAlign=top;spacingTop=-4;fontSize=14;fontFamily=Verdana" parent="1" vertex="1">
          <mxGeometry x="40" y="714" width="170" height="20" as="geometry" />
        </mxCell>
        <mxCell id="677b7b8949515195-39" value="Section 5" style="text;html=1;points=[];align=left;verticalAlign=top;spacingTop=-4;fontSize=14;fontFamily=Verdana" parent="1" vertex="1">
          <mxGeometry x="40" y="393" width="170" height="20" as="geometry" />
        </mxCell>
        <mxCell id="677b7b8949515195-40" value="Section 6" style="text;html=1;points=[];align=left;verticalAlign=top;spacingTop=-4;fontSize=14;fontFamily=Verdana" parent="1" vertex="1">
          <mxGeometry x="40" y="429" width="170" height="20" as="geometry" />
        </mxCell>
        <mxCell id="677b7b8949515195-41" value="Section 15" style="text;html=1;points=[];align=left;verticalAlign=top;spacingTop=-4;fontSize=14;fontFamily=Verdana" parent="1" vertex="1">
          <mxGeometry x="40" y="750" width="170" height="20" as="geometry" />
        </mxCell>
        <mxCell id="677b7b8949515195-42" value="External Links" style="text;html=1;points=[];align=left;verticalAlign=top;spacingTop=-4;fontSize=14;fontFamily=Verdana" parent="1" vertex="1">
          <mxGeometry x="860" y="653" width="170" height="20" as="geometry" />
        </mxCell>
        <mxCell id="677b7b8949515195-44" value="Feature 1" style="text;html=1;points=[];align=left;verticalAlign=top;spacingTop=-4;fontSize=14;fontFamily=Verdana" parent="1" vertex="1">
          <mxGeometry x="860" y="250" width="170" height="20" as="geometry" />
        </mxCell>
        <mxCell id="677b7b8949515195-45" value="Feature 2" style="text;html=1;points=[];align=left;verticalAlign=top;spacingTop=-4;fontSize=14;fontFamily=Verdana" parent="1" vertex="1">
          <mxGeometry x="860" y="285" width="170" height="20" as="geometry" />
        </mxCell>
        <mxCell id="677b7b8949515195-46" value="Feature 3" style="text;html=1;points=[];align=left;verticalAlign=top;spacingTop=-4;fontSize=14;fontFamily=Verdana" parent="1" vertex="1">
          <mxGeometry x="860" y="320" width="170" height="20" as="geometry" />
        </mxCell>
        <mxCell id="677b7b8949515195-47" value="Feature 4" style="text;html=1;points=[];align=left;verticalAlign=top;spacingTop=-4;fontSize=14;fontFamily=Verdana" parent="1" vertex="1">
          <mxGeometry x="860" y="355" width="170" height="20" as="geometry" />
        </mxCell>
        <mxCell id="677b7b8949515195-48" value="Feature 5" style="text;html=1;points=[];align=left;verticalAlign=top;spacingTop=-4;fontSize=14;fontFamily=Verdana" parent="1" vertex="1">
          <mxGeometry x="860" y="390" width="170" height="20" as="geometry" />
        </mxCell>
        <mxCell id="677b7b8949515195-49" value="Feature 6" style="text;html=1;points=[];align=left;verticalAlign=top;spacingTop=-4;fontSize=14;fontFamily=Verdana" parent="1" vertex="1">
          <mxGeometry x="860" y="425" width="170" height="20" as="geometry" />
        </mxCell>
      </root>
    </mxGraphModel>
  </diagram>
  <diagram name="Products Page" id="GI8vJFVQjOxysoXBX6Wj">
    <mxGraphModel dx="1127" dy="731" grid="1" gridSize="10" guides="1" tooltips="1" connect="1" arrows="1" fold="1" page="1" pageScale="1" pageWidth="1100" pageHeight="850" background="none" math="0" shadow="0">
      <root>
        <mxCell id="el8Dttl8L1E4c5gBPtOF-0" />
        <mxCell id="el8Dttl8L1E4c5gBPtOF-1" parent="el8Dttl8L1E4c5gBPtOF-0" />
        <mxCell id="el8Dttl8L1E4c5gBPtOF-2" value="" style="whiteSpace=wrap;html=1;rounded=0;shadow=0;labelBackgroundColor=none;strokeColor=#000000;strokeWidth=1;fillColor=none;fontFamily=Verdana;fontSize=12;fontColor=#000000;align=center;comic=1;container=0;" vertex="1" parent="el8Dttl8L1E4c5gBPtOF-1">
          <mxGeometry x="20" y="24" width="1060" height="1096" as="geometry" />
        </mxCell>
        <mxCell id="el8Dttl8L1E4c5gBPtOF-18" value="" style="whiteSpace=wrap;html=1;rounded=0;shadow=0;labelBackgroundColor=none;strokeWidth=1;fillColor=none;fontFamily=Verdana;fontSize=12;align=center;comic=1;container=1;" vertex="1" parent="el8Dttl8L1E4c5gBPtOF-1">
          <mxGeometry x="250" y="225.5" width="260" height="355" as="geometry" />
        </mxCell>
        <mxCell id="el8Dttl8L1E4c5gBPtOF-17" value="" style="verticalLabelPosition=bottom;shadow=0;dashed=0;align=center;html=1;verticalAlign=top;strokeWidth=1;shape=mxgraph.mockup.graphics.simpleIcon;strokeColor=#999999;rounded=0;labelBackgroundColor=none;fontFamily=Verdana;fontSize=14;fontColor=#000000;comic=1;container=1;" vertex="1" parent="el8Dttl8L1E4c5gBPtOF-18">
          <mxGeometry x="9.81" y="14.5" width="240.37" height="264.5" as="geometry" />
        </mxCell>
        <mxCell id="el8Dttl8L1E4c5gBPtOF-37" value="Price: 90 AED/-" style="text;html=1;points=[];align=left;verticalAlign=top;spacingTop=-4;fontSize=14;fontFamily=Verdana;container=1;" vertex="1" parent="el8Dttl8L1E4c5gBPtOF-18">
          <mxGeometry x="15" y="310.5" width="170" height="20" as="geometry" />
        </mxCell>
        <mxCell id="el8Dttl8L1E4c5gBPtOF-3" value="LOGO" style="whiteSpace=wrap;html=1;rounded=0;shadow=0;labelBackgroundColor=none;strokeWidth=1;fontFamily=Verdana;fontSize=28;align=center;comic=1;" vertex="1" parent="el8Dttl8L1E4c5gBPtOF-1">
          <mxGeometry x="40" y="60" width="190" height="50" as="geometry" />
        </mxCell>
        <mxCell id="el8Dttl8L1E4c5gBPtOF-4" value="Search" style="strokeWidth=1;shadow=0;dashed=0;align=center;html=1;shape=mxgraph.mockup.forms.searchBox;strokeColor=#999999;mainText=;strokeColor2=#008cff;fontColor=#666666;fontSize=17;align=left;spacingLeft=3;rounded=0;labelBackgroundColor=none;comic=1;" vertex="1" parent="el8Dttl8L1E4c5gBPtOF-1">
          <mxGeometry x="840" y="95" width="220" height="30" as="geometry" />
        </mxCell>
        <mxCell id="el8Dttl8L1E4c5gBPtOF-5" value="Home" style="text;html=1;points=[];align=left;verticalAlign=top;spacingTop=-4;fontSize=14;fontFamily=Verdana" vertex="1" parent="el8Dttl8L1E4c5gBPtOF-1">
          <mxGeometry x="810" y="40" width="60" height="20" as="geometry" />
        </mxCell>
        <mxCell id="el8Dttl8L1E4c5gBPtOF-6" value="Account" style="text;html=1;points=[];align=left;verticalAlign=top;spacingTop=-4;fontSize=14;fontFamily=Verdana" vertex="1" parent="el8Dttl8L1E4c5gBPtOF-1">
          <mxGeometry x="870" y="40" width="60" height="20" as="geometry" />
        </mxCell>
        <mxCell id="el8Dttl8L1E4c5gBPtOF-7" value="Cart" style="text;html=1;points=[];align=left;verticalAlign=top;spacingTop=-4;fontSize=14;fontFamily=Verdana" vertex="1" parent="el8Dttl8L1E4c5gBPtOF-1">
          <mxGeometry x="950" y="40" width="40" height="20" as="geometry" />
        </mxCell>
        <mxCell id="el8Dttl8L1E4c5gBPtOF-8" value="Logout" style="text;html=1;points=[];align=left;verticalAlign=top;spacingTop=-4;fontSize=14;fontFamily=Verdana" vertex="1" parent="el8Dttl8L1E4c5gBPtOF-1">
          <mxGeometry x="1000" y="40" width="60" height="20" as="geometry" />
        </mxCell>
        <mxCell id="el8Dttl8L1E4c5gBPtOF-9" value="" style="whiteSpace=wrap;html=1;rounded=0;shadow=0;labelBackgroundColor=none;strokeWidth=1;fillColor=none;fontFamily=Verdana;fontSize=12;align=center;comic=1;" vertex="1" parent="el8Dttl8L1E4c5gBPtOF-1">
          <mxGeometry x="30" y="230" width="200" height="420" as="geometry" />
        </mxCell>
        <mxCell id="el8Dttl8L1E4c5gBPtOF-10" value="" style="line;strokeWidth=1;html=1;rounded=0;shadow=0;labelBackgroundColor=none;fillColor=none;fontFamily=Verdana;fontSize=14;fontColor=#000000;align=center;comic=1;" vertex="1" parent="el8Dttl8L1E4c5gBPtOF-1">
          <mxGeometry x="20" y="140" width="1060" height="10" as="geometry" />
        </mxCell>
        <mxCell id="el8Dttl8L1E4c5gBPtOF-11" value="" style="whiteSpace=wrap;html=1;rounded=0;shadow=0;labelBackgroundColor=none;strokeWidth=1;fillColor=none;fontFamily=Verdana;fontSize=12;align=center;comic=1;" vertex="1" parent="el8Dttl8L1E4c5gBPtOF-1">
          <mxGeometry x="30" y="160" width="1040" height="50" as="geometry" />
        </mxCell>
        <mxCell id="el8Dttl8L1E4c5gBPtOF-12" value="Books" style="text;html=1;points=[];align=left;verticalAlign=top;spacingTop=-4;fontSize=14;fontFamily=Verdana" vertex="1" parent="el8Dttl8L1E4c5gBPtOF-1">
          <mxGeometry x="370" y="175" width="60" height="20" as="geometry" />
        </mxCell>
        <mxCell id="el8Dttl8L1E4c5gBPtOF-13" value="Courses" style="text;html=1;points=[];align=left;verticalAlign=top;spacingTop=-4;fontSize=14;fontFamily=Verdana" vertex="1" parent="el8Dttl8L1E4c5gBPtOF-1">
          <mxGeometry x="550" y="175" width="60" height="20" as="geometry" />
        </mxCell>
        <mxCell id="el8Dttl8L1E4c5gBPtOF-14" value="Stationary" style="text;html=1;points=[];align=left;verticalAlign=top;spacingTop=-4;fontSize=14;fontFamily=Verdana" vertex="1" parent="el8Dttl8L1E4c5gBPtOF-1">
          <mxGeometry x="700" y="175" width="60" height="20" as="geometry" />
        </mxCell>
        <mxCell id="el8Dttl8L1E4c5gBPtOF-19" value="" style="whiteSpace=wrap;html=1;rounded=0;shadow=0;labelBackgroundColor=none;strokeWidth=1;fillColor=none;fontFamily=Verdana;fontSize=12;align=center;comic=1;" vertex="1" parent="el8Dttl8L1E4c5gBPtOF-1">
          <mxGeometry x="40" y="1050" width="1030" height="60" as="geometry" />
        </mxCell>
        <mxCell id="el8Dttl8L1E4c5gBPtOF-20" value="Math" style="text;html=1;points=[];align=left;verticalAlign=top;spacingTop=-4;fontSize=14;fontFamily=Verdana" vertex="1" parent="el8Dttl8L1E4c5gBPtOF-1">
          <mxGeometry x="40" y="250" width="170" height="20" as="geometry" />
        </mxCell>
        <mxCell id="el8Dttl8L1E4c5gBPtOF-21" value="English" style="text;html=1;points=[];align=left;verticalAlign=top;spacingTop=-4;fontSize=14;fontFamily=Verdana" vertex="1" parent="el8Dttl8L1E4c5gBPtOF-1">
          <mxGeometry x="40" y="286" width="170" height="20" as="geometry" />
        </mxCell>
        <mxCell id="el8Dttl8L1E4c5gBPtOF-22" value="Biology" style="text;html=1;points=[];align=left;verticalAlign=top;spacingTop=-4;fontSize=14;fontFamily=Verdana" vertex="1" parent="el8Dttl8L1E4c5gBPtOF-1">
          <mxGeometry x="40" y="321" width="170" height="20" as="geometry" />
        </mxCell>
        <mxCell id="el8Dttl8L1E4c5gBPtOF-23" value="Exam Prep" style="text;html=1;points=[];align=left;verticalAlign=top;spacingTop=-4;fontSize=14;fontFamily=Verdana" vertex="1" parent="el8Dttl8L1E4c5gBPtOF-1">
          <mxGeometry x="40" y="357" width="170" height="20" as="geometry" />
        </mxCell>
        <mxCell id="el8Dttl8L1E4c5gBPtOF-24" value="Computers Sci &amp;amp; IT" style="text;html=1;points=[];align=left;verticalAlign=top;spacingTop=-4;fontSize=14;fontFamily=Verdana" vertex="1" parent="el8Dttl8L1E4c5gBPtOF-1">
          <mxGeometry x="40" y="464" width="170" height="20" as="geometry" />
        </mxCell>
        <mxCell id="el8Dttl8L1E4c5gBPtOF-25" value="Engineering" style="text;html=1;points=[];align=left;verticalAlign=top;spacingTop=-4;fontSize=14;fontFamily=Verdana" vertex="1" parent="el8Dttl8L1E4c5gBPtOF-1">
          <mxGeometry x="40" y="500" width="170" height="20" as="geometry" />
        </mxCell>
        <mxCell id="el8Dttl8L1E4c5gBPtOF-26" value="Fiction" style="text;html=1;points=[];align=left;verticalAlign=top;spacingTop=-4;fontSize=14;fontFamily=Verdana" vertex="1" parent="el8Dttl8L1E4c5gBPtOF-1">
          <mxGeometry x="40" y="536" width="170" height="20" as="geometry" />
        </mxCell>
        <mxCell id="el8Dttl8L1E4c5gBPtOF-27" value="Non Fiction" style="text;html=1;points=[];align=left;verticalAlign=top;spacingTop=-4;fontSize=14;fontFamily=Verdana" vertex="1" parent="el8Dttl8L1E4c5gBPtOF-1">
          <mxGeometry x="40" y="571" width="170" height="20" as="geometry" />
        </mxCell>
        <mxCell id="el8Dttl8L1E4c5gBPtOF-28" value="General Knowledge" style="text;html=1;points=[];align=left;verticalAlign=top;spacingTop=-4;fontSize=14;fontFamily=Verdana" vertex="1" parent="el8Dttl8L1E4c5gBPtOF-1">
          <mxGeometry x="40" y="607" width="170" height="20" as="geometry" />
        </mxCell>
        <mxCell id="el8Dttl8L1E4c5gBPtOF-32" value="Medicine" style="text;html=1;points=[];align=left;verticalAlign=top;spacingTop=-4;fontSize=14;fontFamily=Verdana" vertex="1" parent="el8Dttl8L1E4c5gBPtOF-1">
          <mxGeometry x="40" y="393" width="170" height="20" as="geometry" />
        </mxCell>
        <mxCell id="el8Dttl8L1E4c5gBPtOF-33" value="Physics" style="text;html=1;points=[];align=left;verticalAlign=top;spacingTop=-4;fontSize=14;fontFamily=Verdana" vertex="1" parent="el8Dttl8L1E4c5gBPtOF-1">
          <mxGeometry x="40" y="429" width="170" height="20" as="geometry" />
        </mxCell>
        <mxCell id="el8Dttl8L1E4c5gBPtOF-35" value="External Links" style="text;html=1;points=[];align=left;verticalAlign=top;spacingTop=-4;fontSize=14;fontFamily=Verdana" vertex="1" parent="el8Dttl8L1E4c5gBPtOF-1">
          <mxGeometry x="50" y="1050" width="170" height="20" as="geometry" />
        </mxCell>
        <mxCell id="el8Dttl8L1E4c5gBPtOF-36" value="&lt;font style=&quot;font-size: 14px&quot;&gt;&lt;b&gt;&lt;font style=&quot;font-size: 18px&quot;&gt;SAT Barrons&lt;br&gt;&lt;/font&gt;&lt;/b&gt;&lt;/font&gt;" style="text;html=1;points=[];align=left;verticalAlign=top;spacingTop=-4;fontSize=14;fontFamily=Verdana;container=1;" vertex="1" parent="el8Dttl8L1E4c5gBPtOF-1">
          <mxGeometry x="280" y="510" width="170" height="20" as="geometry" />
        </mxCell>
        <mxCell id="el8Dttl8L1E4c5gBPtOF-44" value="" style="whiteSpace=wrap;html=1;rounded=0;shadow=0;labelBackgroundColor=none;strokeWidth=1;fillColor=none;fontFamily=Verdana;fontSize=12;align=center;comic=1;container=1;" vertex="1" parent="el8Dttl8L1E4c5gBPtOF-1">
          <mxGeometry x="523" y="225.5" width="260" height="355" as="geometry" />
        </mxCell>
        <mxCell id="el8Dttl8L1E4c5gBPtOF-45" value="" style="verticalLabelPosition=bottom;shadow=0;dashed=0;align=center;html=1;verticalAlign=top;strokeWidth=1;shape=mxgraph.mockup.graphics.simpleIcon;strokeColor=#999999;rounded=0;labelBackgroundColor=none;fontFamily=Verdana;fontSize=14;fontColor=#000000;comic=1;container=1;" vertex="1" parent="el8Dttl8L1E4c5gBPtOF-44">
          <mxGeometry x="9.629629629629632" y="10" width="240.74074074074073" height="264.5" as="geometry" />
        </mxCell>
        <mxCell id="el8Dttl8L1E4c5gBPtOF-46" value="&lt;font style=&quot;font-size: 14px&quot;&gt;&lt;b&gt;GRE ETS&lt;font style=&quot;font-size: 18px&quot;&gt;&lt;br&gt;&lt;/font&gt;&lt;/b&gt;&lt;/font&gt;" style="text;html=1;points=[];align=left;verticalAlign=top;spacingTop=-4;fontSize=14;fontFamily=Verdana;container=1;" vertex="1" parent="el8Dttl8L1E4c5gBPtOF-44">
          <mxGeometry x="7.703703703703703" y="289.5" width="163.7037037037037" height="20" as="geometry" />
        </mxCell>
        <mxCell id="el8Dttl8L1E4c5gBPtOF-47" value="Price: 150 AED/-" style="text;html=1;points=[];align=left;verticalAlign=top;spacingTop=-4;fontSize=14;fontFamily=Verdana;container=1;" vertex="1" parent="el8Dttl8L1E4c5gBPtOF-44">
          <mxGeometry x="9.633703703703704" y="320.5" width="163.7037037037037" height="20" as="geometry" />
        </mxCell>
        <mxCell id="el8Dttl8L1E4c5gBPtOF-49" value="" style="whiteSpace=wrap;html=1;rounded=0;shadow=0;labelBackgroundColor=none;strokeWidth=1;fillColor=none;fontFamily=Verdana;fontSize=12;align=center;comic=1;container=1;" vertex="1" parent="el8Dttl8L1E4c5gBPtOF-1">
          <mxGeometry x="800" y="225.5" width="260" height="355" as="geometry" />
        </mxCell>
        <mxCell id="el8Dttl8L1E4c5gBPtOF-50" value="" style="verticalLabelPosition=bottom;shadow=0;dashed=0;align=center;html=1;verticalAlign=top;strokeWidth=1;shape=mxgraph.mockup.graphics.simpleIcon;strokeColor=#999999;rounded=0;labelBackgroundColor=none;fontFamily=Verdana;fontSize=14;fontColor=#000000;comic=1;container=1;" vertex="1" parent="el8Dttl8L1E4c5gBPtOF-49">
          <mxGeometry x="9.629629629629632" y="10" width="240.74074074074073" height="264.5" as="geometry" />
        </mxCell>
        <mxCell id="el8Dttl8L1E4c5gBPtOF-51" value="&lt;b&gt;GRE Barrons&lt;br&gt;&lt;/b&gt;" style="text;html=1;points=[];align=left;verticalAlign=top;spacingTop=-4;fontSize=14;fontFamily=Verdana;container=1;" vertex="1" parent="el8Dttl8L1E4c5gBPtOF-49">
          <mxGeometry x="7.703703703703703" y="289.5" width="163.7037037037037" height="20" as="geometry" />
        </mxCell>
        <mxCell id="el8Dttl8L1E4c5gBPtOF-52" value="Price: 85 AED/-" style="text;html=1;points=[];align=left;verticalAlign=top;spacingTop=-4;fontSize=14;fontFamily=Verdana;container=1;" vertex="1" parent="el8Dttl8L1E4c5gBPtOF-49">
          <mxGeometry x="7.703703703703703" y="320.5" width="163.7037037037037" height="20" as="geometry" />
        </mxCell>
        <mxCell id="el8Dttl8L1E4c5gBPtOF-53" value="" style="whiteSpace=wrap;html=1;rounded=0;shadow=0;labelBackgroundColor=none;strokeWidth=1;fillColor=none;fontFamily=Verdana;fontSize=12;align=center;comic=1;container=1;" vertex="1" parent="el8Dttl8L1E4c5gBPtOF-1">
          <mxGeometry x="250" y="600" width="260" height="355" as="geometry" />
        </mxCell>
        <mxCell id="el8Dttl8L1E4c5gBPtOF-54" value="" style="verticalLabelPosition=bottom;shadow=0;dashed=0;align=center;html=1;verticalAlign=top;strokeWidth=1;shape=mxgraph.mockup.graphics.simpleIcon;strokeColor=#999999;rounded=0;labelBackgroundColor=none;fontFamily=Verdana;fontSize=14;fontColor=#000000;comic=1;container=1;" vertex="1" parent="el8Dttl8L1E4c5gBPtOF-53">
          <mxGeometry x="9.629629629629632" y="10" width="240.74074074074073" height="264.5" as="geometry" />
        </mxCell>
        <mxCell id="el8Dttl8L1E4c5gBPtOF-55" value="&lt;b&gt;USLME Step I&lt;font style=&quot;font-size: 18px&quot;&gt;&lt;br&gt;&lt;/font&gt;&lt;/b&gt;" style="text;html=1;points=[];align=left;verticalAlign=top;spacingTop=-4;fontSize=14;fontFamily=Verdana;container=1;" vertex="1" parent="el8Dttl8L1E4c5gBPtOF-53">
          <mxGeometry x="7.703703703703703" y="289.5" width="163.7037037037037" height="20" as="geometry" />
        </mxCell>
        <mxCell id="el8Dttl8L1E4c5gBPtOF-56" value="Price: 200 AED/-" style="text;html=1;points=[];align=left;verticalAlign=top;spacingTop=-4;fontSize=14;fontFamily=Verdana;container=1;" vertex="1" parent="el8Dttl8L1E4c5gBPtOF-53">
          <mxGeometry x="7.703703703703703" y="320.5" width="163.7037037037037" height="20" as="geometry" />
        </mxCell>
        <mxCell id="el8Dttl8L1E4c5gBPtOF-57" value="" style="whiteSpace=wrap;html=1;rounded=0;shadow=0;labelBackgroundColor=none;strokeWidth=1;fillColor=none;fontFamily=Verdana;fontSize=12;align=center;comic=1;container=1;" vertex="1" parent="el8Dttl8L1E4c5gBPtOF-1">
          <mxGeometry x="520" y="600" width="260" height="355" as="geometry" />
        </mxCell>
        <mxCell id="el8Dttl8L1E4c5gBPtOF-58" value="" style="verticalLabelPosition=bottom;shadow=0;dashed=0;align=center;html=1;verticalAlign=top;strokeWidth=1;shape=mxgraph.mockup.graphics.simpleIcon;strokeColor=#999999;rounded=0;labelBackgroundColor=none;fontFamily=Verdana;fontSize=14;fontColor=#000000;comic=1;container=1;" vertex="1" parent="el8Dttl8L1E4c5gBPtOF-57">
          <mxGeometry x="9.629629629629632" y="10" width="240.74074074074073" height="264.5" as="geometry" />
        </mxCell>
        <mxCell id="el8Dttl8L1E4c5gBPtOF-59" value="&lt;b&gt;GMAT Official Guide&lt;br&gt;&lt;/b&gt;" style="text;html=1;points=[];align=left;verticalAlign=top;spacingTop=-4;fontSize=14;fontFamily=Verdana;container=1;" vertex="1" parent="el8Dttl8L1E4c5gBPtOF-57">
          <mxGeometry x="7.703703703703703" y="289.5" width="163.7037037037037" height="20" as="geometry" />
        </mxCell>
        <mxCell id="el8Dttl8L1E4c5gBPtOF-60" value="Price: 235 AED/-" style="text;html=1;points=[];align=left;verticalAlign=top;spacingTop=-4;fontSize=14;fontFamily=Verdana;container=1;" vertex="1" parent="el8Dttl8L1E4c5gBPtOF-57">
          <mxGeometry x="7.703703703703703" y="320.5" width="163.7037037037037" height="20" as="geometry" />
        </mxCell>
        <mxCell id="el8Dttl8L1E4c5gBPtOF-61" value="" style="whiteSpace=wrap;html=1;rounded=0;shadow=0;labelBackgroundColor=none;strokeWidth=1;fillColor=none;fontFamily=Verdana;fontSize=12;align=center;comic=1;container=1;" vertex="1" parent="el8Dttl8L1E4c5gBPtOF-1">
          <mxGeometry x="800" y="600" width="260" height="355" as="geometry" />
        </mxCell>
        <mxCell id="el8Dttl8L1E4c5gBPtOF-62" value="" style="verticalLabelPosition=bottom;shadow=0;dashed=0;align=center;html=1;verticalAlign=top;strokeWidth=1;shape=mxgraph.mockup.graphics.simpleIcon;strokeColor=#999999;rounded=0;labelBackgroundColor=none;fontFamily=Verdana;fontSize=14;fontColor=#000000;comic=1;container=1;" vertex="1" parent="el8Dttl8L1E4c5gBPtOF-61">
          <mxGeometry x="9.629629629629632" y="10" width="240.74074074074073" height="264.5" as="geometry" />
        </mxCell>
        <mxCell id="el8Dttl8L1E4c5gBPtOF-63" value="&lt;b&gt;IELTS&lt;br&gt;&lt;/b&gt;" style="text;html=1;points=[];align=left;verticalAlign=top;spacingTop=-4;fontSize=14;fontFamily=Verdana;container=1;" vertex="1" parent="el8Dttl8L1E4c5gBPtOF-61">
          <mxGeometry x="7.703703703703703" y="289.5" width="163.7037037037037" height="20" as="geometry" />
        </mxCell>
        <mxCell id="el8Dttl8L1E4c5gBPtOF-64" value="Price: 175 AED/-" style="text;html=1;points=[];align=left;verticalAlign=top;spacingTop=-4;fontSize=14;fontFamily=Verdana;container=1;" vertex="1" parent="el8Dttl8L1E4c5gBPtOF-61">
          <mxGeometry x="7.703703703703703" y="320.5" width="163.7037037037037" height="20" as="geometry" />
        </mxCell>
        <mxCell id="aByMA1-MPRmc2SQGBLkS-0" value="&lt;&lt; Prev 1 2 3 4 5 6 7 8 9 10 Next &gt;&gt;" style="strokeWidth=1;shadow=0;dashed=0;align=center;html=1;shape=mxgraph.mockup.navigation.pagination;linkText=;fontSize=17;fontColor=#0000ff;fontStyle=4;" vertex="1" parent="el8Dttl8L1E4c5gBPtOF-1">
          <mxGeometry x="430" y="990" width="350" height="30" as="geometry" />
        </mxCell>
      </root>
    </mxGraphModel>
  </diagram>
</mxfile>
